<svg width="80" height="80" viewBox="0 0 80 80" fill="none" xmlns="http://www.w3.org/2000/svg">
<mask id="path-1-inside-1" fill="white">
<path fill-rule="evenodd" clip-rule="evenodd" d="M69.7524 29.5642L40 16.6667L10.2475 29.5642H10.0002L10.1239 29.6178L10 29.6715H10.2478L40.0002 42.569L69.7527 29.6715H69.9999L69.8763 29.6179L70.0002 29.5642H69.7524Z"/>
</mask>
<path d="M40 16.6667L41.6981 12.7493L40 12.0132L38.3018 12.7493L40 16.6667ZM69.7524 29.5642L68.0543 33.4816L68.8668 33.8338H69.7524V29.5642ZM10.2475 29.5642V33.8338H11.1331L11.9457 33.4816L10.2475 29.5642ZM10.0002 29.5642V25.2946L8.30207 33.4816L10.0002 29.5642ZM10.1239 29.6178L11.822 33.5352L20.8589 29.6178L11.8221 25.7004L10.1239 29.6178ZM10 29.6715L8.30185 25.7541L10 33.9411V29.6715ZM10.2478 29.6715L11.9459 25.7541L11.1334 25.4019H10.2478V29.6715ZM40.0002 42.569L38.302 46.4864L40.0002 47.2225L41.6984 46.4864L40.0002 42.569ZM69.7527 29.6715V25.4019H68.867L68.0545 25.7541L69.7527 29.6715ZM69.9999 29.6715V33.9411L71.6981 25.7541L69.9999 29.6715ZM69.8763 29.6179L68.1781 25.7005L59.1413 29.6179L68.1781 33.5353L69.8763 29.6179ZM70.0002 29.5642L71.6983 33.4816L70.0002 25.2946V29.5642ZM38.3018 20.5842L68.0543 33.4816L71.4506 25.6468L41.6981 12.7493L38.3018 20.5842ZM11.9457 33.4816L41.6981 20.5842L38.3018 12.7493L8.54935 25.6468L11.9457 33.4816ZM10.0002 33.8338H10.2475V25.2946H10.0002V33.8338ZM11.8221 25.7004L11.6984 25.6468L8.30207 33.4816L8.4257 33.5352L11.8221 25.7004ZM11.6982 33.5889L11.822 33.5352L8.42573 25.7004L8.30185 25.7541L11.6982 33.5889ZM10.2478 25.4019H10V33.9411H10.2478V25.4019ZM41.6984 38.6516L11.9459 25.7541L8.5496 33.5889L38.302 46.4864L41.6984 38.6516ZM68.0545 25.7541L38.302 38.6516L41.6984 46.4864L71.4508 33.5889L68.0545 25.7541ZM69.9999 25.4019H69.7527V33.9411H69.9999V25.4019ZM68.1781 33.5353L68.3018 33.5889L71.6981 25.7541L71.5745 25.7005L68.1781 33.5353ZM68.302 25.6468L68.1781 25.7005L71.5745 33.5353L71.6983 33.4816L68.302 25.6468ZM69.7524 33.8338H70.0002V25.2946H69.7524V33.8338Z" fill="#797A7E" mask="url(#path-1-inside-1)"/>
<path d="M24.428 33.4601V45.7121L40.4492 51.3926L55.3261 45.7121V41.3682" stroke="#797A7E" stroke-width="4.26964"/>
<path fill-rule="evenodd" clip-rule="evenodd" d="M45.6623 32.4056C44.4998 31.4963 42.9272 31.1273 41.4871 31.0941C40.702 31.0759 39.9833 30.5404 39.8771 29.7623C39.7707 28.9827 40.3178 28.2576 41.1045 28.2473C43.0903 28.2212 45.5132 28.6682 47.4305 30.1679C49.9853 32.1663 51.2209 35.6793 49.9976 41.0345C48.8261 46.163 47.5283 49.9289 46.5259 52.8374C46.2875 53.5292 46.0658 54.1725 45.8665 54.7741C45.0745 57.1648 44.6856 58.7742 44.8055 60.2164C44.8711 61.005 44.486 61.8196 43.7349 62.0687C42.9871 62.3167 42.1658 61.9129 42.0391 61.1352C41.6604 58.8091 42.2672 56.5459 43.1494 53.8831C43.3596 53.2485 43.5891 52.5821 43.8329 51.8743C44.8331 48.9705 46.0735 45.3693 47.2078 40.4037C48.2732 35.7396 47.077 33.5122 45.6623 32.4056Z" fill="#797A7E"/>
</svg>
